# xmcd
# Copyright (C) 1995-1998 Ti Kan
#
# Track frame offsets:
#       150
#       22480
#       41629
#       65823
#       77687
#       105714
#       112611
#       130708
#       154110
#       170016
#
# Disc length: 2555 seconds
#
# Revision: 0
# Processed by: cddbd v1.5.2PL0 Copyright (c) Steve Scherf et al.
# Submitted via: CD-Import v1.0
#
DISCID=8209f90a
DTITLE=Phraseland - Songs For Clowns And Space Travellers
DYEAR=2007
DGENRE=
TTITLE0=Popmusic
TTITLE1=What's Your Name
TTITLE2=Imaginary Friend
TTITLE3=Syd
TTITLE4=Phraseland
TTITLE5=Wicked Thoughts
TTITLE6=Ricochet
TTITLE7=Clouds Of Candy
TTITLE8=All I Feel For You
TTITLE9=Cellophane
EXTD=
EXTT0=
EXTT1=
EXTT2=
EXTT3=
EXTT4=
EXTT5=
EXTT6=
EXTT7=
EXTT8=
EXTT9=
PLAYORDER=
